# xmcd
#
# Track frame offsets:
#       150
#       12768
#       25103
#       46985
#       55888
#       70841
#       80107
#       101660
#       111782
#       139696
#       159736
#       170902
#
# Disc length: 2481 seconds
#
# Revision: 0
# Processed by: cddbd v1.5.2PL0 Copyright (c) Steve Scherf et al.
# Submitted via: WaveLab 6.01
#
DISCID=a009af0c
DTITLE=Melody 4 - We belive
DYEAR=1999
DGENRE=Gospel
TTITLE0=01 All that I am
TTITLE1=02 When we all get together with the Lord
TTITLE2=03 We believe
TTITLE3=04 Just a little talk with Jesus
TTITLE4=05 I believe in a hill called mount calvary
TTITLE5=06 Look for me around the throne
TTITLE6=07 The old ruggd cross made the difference
TTITLE7=08 In that great gettin up morning
TTITLE8=09 I bowed on my knees and cried Holy
TTITLE9=10 Count on me
TTITLE10=11 Steppin on he clouds
TTITLE11=12 Farther along
EXTD=
EXTT0=
EXTT1=
EXTT2=
EXTT3=
EXTT4=
EXTT5=
EXTT6=
EXTT7=
EXTT8=
EXTT9=
EXTT10=
EXTT11=
PLAYORDER=
